<?xml version="1.0" encoding="utf-8"?>
<!-- Generator: Adobe Illustrator 24.0.0, SVG Export Plug-In . SVG Version: 6.00 Build 0)  -->
<svg version="1.1" id="Layer_1" xmlns="http://www.w3.org/2000/svg" xmlns:xlink="http://www.w3.org/1999/xlink" x="0px" y="0px"
	 viewBox="0 0 300 300" style="enable-background:new 0 0 300 300;" xml:space="preserve">
<g>
	<path d="M224.9,188.5c-0.2,0-0.3,0-0.5,0v0H103.7l-7.1-20.7l133-0.1l29.4-82.4L68.7,86.9l-9.2-26.8H14.9c-0.1,0-0.2,0-0.3,0
		c-2.8,0-5,2.2-5,5c0,2.8,2.3,5,5,5c0.1,0,0.2,0,0.3,0h37.5l44.2,128.4h127.9c0.2,0,0.3,0,0.5,0c2.8,0,5-2.3,5-5
		C230,190.8,227.7,188.5,224.9,188.5z M247.5,93.4l-23.6,66.3l-130.1,0.1L71.5,94.9L247.5,93.4z"/>
</g>
<circle cx="115.2" cy="222.6" r="10"/>
<circle cx="208" cy="222.6" r="10"/>
</svg>
