<?xml version="1.0" encoding="utf-8"?>
<!-- Generator: Adobe Illustrator 24.0.0, SVG Export Plug-In . SVG Version: 6.00 Build 0)  -->
<svg version="1.1" id="Capa_1" xmlns="http://www.w3.org/2000/svg" xmlns:xlink="http://www.w3.org/1999/xlink" x="0px" y="0px"
	 viewBox="0 0 1000 1000" style="enable-background:new 0 0 1000 1000;" xml:space="preserve">
<style type="text/css">
	.st0{stroke:#000000;stroke-miterlimit:10;}
</style>
<path d="M273.71,67l668.66,0.24v872.01H70.36L70,271L273.71,67 M263,42L45,259l0.37,705.25h922v-922L263,42L263,42z"/>
<g>
	<polygon class="st0" points="845.63,185.75 299.5,185.5 324.5,160.5 845.63,160.75 	"/>
</g>
<g>
	<polygon points="845.38,295.75 189,295.75 214,271 845.38,270.75 	"/>
</g>
<g>
	<rect x="168.13" y="380.75" width="677" height="25"/>
</g>
<g>
	<rect x="167.88" y="490.75" width="677" height="25"/>
</g>
<g>
	<rect x="167.63" y="600.75" width="677" height="25"/>
</g>
<g>
	<rect x="167.38" y="710.75" width="677" height="25"/>
</g>
<g>
	<rect x="167.13" y="820.75" width="677" height="25"/>
</g>
</svg>
